<?xml version="1.0" standalone="no"?>
<!DOCTYPE svg PUBLIC "-//W3C//DTD SVG 20010904//EN"
 "http://www.w3.org/TR/2001/REC-SVG-20010904/DTD/svg10.dtd">
<svg version="1.0" xmlns="http://www.w3.org/2000/svg"
 width="1132.000000pt" height="1135.000000pt" viewBox="0 0 1132.000000 1135.000000"
 preserveAspectRatio="xMidYMid meet">

<g transform="translate(0.000000,1135.000000) scale(0.100000,-0.100000)"
fill="#000000" stroke="none">
<path d="M830 7612 c-83 -45 -106 -277 -34 -348 29 -30 85 -32 124 -4 45 32
59 83 56 204 -2 98 -4 109 -27 131 -34 34 -76 40 -119 17z"/>
<path d="M6182 7614 c-117 -31 -198 -93 -297 -229 -89 -123 -119 -180 -140
-266 -30 -131 -12 -257 48 -326 59 -67 135 -80 225 -38 30 14 64 25 76 25 12
0 45 8 72 17 59 20 146 105 184 179 14 27 49 80 78 119 153 202 172 362 55
465 -76 66 -184 86 -301 54z m183 -194 c3 -5 2 -10 -4 -10 -5 0 -13 5 -16 10
-3 6 -2 10 4 10 5 0 13 -4 16 -10z"/>
<path d="M7388 7114 c-2 -2 -50 -8 -107 -13 -77 -7 -117 -16 -157 -36 -72 -35
-151 -110 -193 -181 -19 -33 -52 -83 -74 -113 -48 -64 -77 -137 -77 -189 0
-50 49 -150 92 -188 58 -51 114 -67 216 -62 76 3 99 9 166 41 106 50 213 157
276 277 45 84 45 86 45 185 0 95 -2 103 -35 164 -19 36 -46 73 -60 83 -25 18
-85 39 -92 32z"/>
<path d="M1375 7070 c-11 -5 -37 -9 -57 -9 -57 -1 -98 -52 -98 -120 0 -68 30
-132 91 -193 104 -103 166 -110 228 -23 45 63 61 107 61 168 0 84 -32 142 -97
176 -25 13 -99 14 -128 1z"/>
<path d="M1892 6924 c-75 -38 -120 -126 -107 -208 15 -93 81 -197 147 -232 39
-20 107 -17 146 6 50 30 75 96 80 206 5 109 -14 165 -73 210 -47 36 -141 45
-193 18z"/>
<path d="M4997 6816 c-83 -30 -214 -140 -279 -234 -16 -23 -43 -73 -61 -109
-28 -61 -31 -77 -31 -164 -1 -94 0 -99 28 -128 16 -17 45 -36 64 -42 44 -14
182 -5 242 16 98 35 227 170 271 285 30 76 37 197 15 255 -44 113 -139 160
-249 121z"/>
<path d="M2490 6522 c-82 -37 -109 -117 -84 -252 16 -83 33 -123 73 -167 78
-85 140 -65 202 67 32 67 19 196 -28 278 -35 61 -112 96 -163 74z"/>
<path d="M3555 6483 c-120 -26 -202 -122 -213 -248 -4 -53 -1 -71 20 -116 14
-30 31 -71 37 -91 15 -46 69 -95 115 -103 57 -11 141 19 197 72 70 65 103 138
103 227 0 39 -6 89 -13 110 -35 100 -150 170 -246 149z"/>
<path d="M5889 6476 c-110 -29 -227 -137 -287 -263 -31 -65 -33 -76 -22 -102
6 -16 18 -32 27 -35 11 -5 13 -16 8 -51 -12 -74 11 -142 64 -195 76 -75 162
-88 299 -45 194 61 302 192 302 366 0 148 -109 286 -256 324 -68 18 -74 18
-135 1z"/>
<path d="M10749 5627 c-59 -39 -48 -112 20 -139 78 -29 150 90 85 141 -34 27
-63 26 -105 -2z"/>
</g>
</svg>
